<svg width="19" height="22" viewBox="0 0 19 22" fill="none" xmlns="http://www.w3.org/2000/svg">
<path fill-rule="evenodd" clip-rule="evenodd" d="M19 4.38462C19 4.77224 18.846 5.14399 18.5719 5.41808C18.2978 5.69217 17.9261 5.84615 17.5385 5.84615H16.8077V19C16.8077 19.7752 16.4997 20.5187 15.9515 21.0669C15.4034 21.6151 14.6599 21.9231 13.8846 21.9231H5.11538C4.34014 21.9231 3.59664 21.6151 3.04846 21.0669C2.50027 20.5187 2.19231 19.7752 2.19231 19V5.84615H1.46154C1.07391 5.84615 0.702166 5.69217 0.428075 5.41808C0.153983 5.14399 0 4.77224 0 4.38462V2.92308C0 2.53545 0.153983 2.1637 0.428075 1.88961C0.702166 1.61552 1.07391 1.46154 1.46154 1.46154H6.57692C6.57692 1.07391 6.73091 0.702166 7.005 0.428075C7.27909 0.153983 7.65084 0 8.03846 0L10.9615 0C11.3492 0 11.7209 0.153983 11.995 0.428075C12.2691 0.702166 12.4231 1.07391 12.4231 1.46154H17.5385C17.9261 1.46154 18.2978 1.61552 18.5719 1.88961C18.846 2.1637 19 2.53545 19 2.92308V4.38462ZM3.82631 5.84615L3.65385 5.93238V19C3.65385 19.3876 3.80783 19.7594 4.08192 20.0335C4.35601 20.3076 4.72776 20.4615 5.11538 20.4615H13.8846C14.2722 20.4615 14.644 20.3076 14.9181 20.0335C15.1922 19.7594 15.3462 19.3876 15.3462 19V5.93238L15.1737 5.84615H3.82631ZM1.46154 4.38462V2.92308H17.5385V4.38462H1.46154Z" fill="white"/>
</svg>
